<svg width="35" height="34" viewBox="0 0 35 34" fill="none" xmlns="http://www.w3.org/2000/svg">
<path d="M27.3446 0H6.67066C4.90314 0.00499796 3.20945 0.70906 1.95962 1.95836C0.70979 3.20766 0.00542987 4.90064 0.000429789 6.66741V27.3326C-0.00958218 28.2154 0.155419 29.0915 0.48591 29.9102C0.816402 30.729 1.30584 31.4742 1.92598 32.1029C2.54611 32.7316 3.28467 33.2313 4.09903 33.5731C4.91338 33.915 5.7874 34.0923 6.67066 34.0947H20.9586C21.4612 34.0947 21.9431 33.8951 22.2985 33.5399C22.6539 33.1847 22.8535 32.7029 22.8535 32.2006V30.3064C22.8535 27.88 23.8178 25.553 25.5343 23.8373C27.2507 22.1215 29.5787 21.1577 32.0062 21.1577C32.5087 21.1577 32.9907 20.9581 33.3461 20.6029C33.7015 20.2477 33.9011 19.7659 33.9011 19.2635V6.66741C33.8965 4.92009 33.2078 3.244 31.9824 1.99789C30.757 0.75177 29.0923 0.0346433 27.3446 0Z" fill="#0054F9"/>
<path d="M34.5639 28.829C34.564 29.5071 34.3629 30.1701 33.986 30.734C33.6091 31.2979 33.0734 31.7374 32.4466 31.9969C31.8199 32.2564 31.1301 32.3243 30.4647 32.192C29.7994 32.0597 29.1882 31.7331 28.7085 31.2535C28.4594 31.0203 28.254 30.7445 28.1021 30.439C27.8335 29.9453 27.6965 29.3909 27.7042 28.829C27.714 27.9228 28.0785 27.0565 28.7196 26.4156C29.3607 25.7748 30.2274 25.4104 31.134 25.4006C31.4019 25.4039 31.6687 25.4357 31.9299 25.4953C32.6783 25.6772 33.3443 26.1042 33.8216 26.7084C34.299 27.3126 34.5603 28.0591 34.5639 28.829Z" fill="#0054F9"/>
</svg>
