<svg width="14" height="14" viewBox="0 0 14 14" fill="none" xmlns="http://www.w3.org/2000/svg">
<path d="M5.6 3.5C5.59986 4.47345 5.88966 5.42488 6.43246 6.23295C6.97525 7.04102 7.74643 7.6691 8.64764 8.0371C9.54885 8.40509 10.5393 8.49632 11.4925 8.29914C12.4458 8.10196 13.3187 7.62532 14 6.93V7C14 10.8661 10.8661 14 7 14C3.1339 14 0 10.8661 0 7C0 3.1339 3.1339 0 7 0H7.07C6.60383 0.455788 6.2336 1.00028 5.98114 1.60138C5.72867 2.20248 5.59908 2.84803 5.6 3.5ZM1.4 7C1.39949 8.24949 1.81687 9.46325 2.58572 10.4482C3.35458 11.4331 4.43074 12.1326 5.64299 12.4354C6.85523 12.7382 8.13392 12.6268 9.27559 12.1191C10.4173 11.6114 11.3563 10.7364 11.9434 9.6334C10.8986 9.87955 9.80825 9.85466 8.77578 9.5611C7.7433 9.26755 6.80295 8.71506 6.04395 7.95605C5.28494 7.19705 4.73245 6.2567 4.4389 5.22422C4.14534 4.19175 4.12045 3.10139 4.3666 2.0566C3.47031 2.5341 2.72075 3.24636 2.19818 4.11715C1.67561 4.98794 1.3997 5.98445 1.4 7Z" fill="black"/>
</svg>
