<svg width="135" height="34" viewBox="0 0 135 34" fill="none" xmlns="http://www.w3.org/2000/svg">
<path d="M50.1453 23.553V7.59766H58.6927C60.9721 7.59766 62.4916 7.97754 63.6313 8.73732C64.581 9.4971 65.1508 10.4468 65.1508 11.7764C65.1508 12.5362 64.9609 13.296 64.3911 13.8658C63.8212 14.4356 63.2514 15.0055 62.4916 15.3854C61.7319 15.7653 60.5922 15.9552 59.2626 15.9552L59.6425 14.8155C60.9721 14.8155 61.9218 15.0055 62.8715 15.3854C63.8212 15.7653 64.3911 16.3351 64.9609 16.9049C65.5307 17.4748 65.7207 18.4245 65.7207 19.3742C65.7207 20.7038 65.1509 21.8435 64.0112 22.6032C62.8715 23.363 61.162 23.7429 59.0726 23.7429H50.1453V23.553ZM55.4637 19.7541H58.6927C59.2626 19.7541 59.6425 19.5641 60.0224 19.3742C60.4022 19.1842 60.4022 18.8044 60.4022 18.4245C60.4022 18.0446 60.2123 17.6647 60.0224 17.4748C59.6425 17.2848 59.2626 17.0949 58.6927 17.0949H55.0838V13.6759H57.933C58.5028 13.6759 59.0726 13.4859 59.2626 13.296C59.4525 13.106 59.6425 12.7261 59.6425 12.3463C59.6425 11.9664 59.4525 11.5865 59.2626 11.3965C58.8827 11.3965 58.5028 11.2066 57.933 11.2066H55.4637V19.7541Z" fill="#231F20"/>
<path d="M71.609 23.7429C70.6592 23.7429 69.7095 23.5529 69.1397 23.173C68.3799 22.7931 68 22.4133 67.6201 21.8434C67.2402 21.2736 67.0503 20.5138 67.0503 19.944C67.0503 19.1842 67.2402 18.4244 67.6201 17.8546C68 17.2848 68.5698 16.9049 69.5196 16.525C70.2793 16.1451 71.419 16.1451 72.7486 16.1451H75.4078V18.6144H73.6983C73.1285 18.6144 72.7486 18.6144 72.5587 18.8043C72.3687 18.9943 72.1788 19.1842 72.1788 19.5641C72.1788 19.944 72.3687 20.1339 72.5587 20.3239C72.7486 20.5138 73.1285 20.7038 73.5084 20.7038C73.8883 20.7038 74.2682 20.7038 74.4581 20.3239C74.838 20.1339 75.0279 19.754 75.0279 19.3741L75.5978 20.8937C75.4078 21.8434 75.0279 22.6032 74.2682 22.9831C73.5084 23.5529 72.7486 23.7429 71.609 23.7429ZM75.0279 23.5529V21.2736L74.6481 20.7038V16.525C74.6481 15.9552 74.4581 15.3853 74.0782 15.1954C73.6983 14.8155 73.1285 14.6255 72.1788 14.6255C71.609 14.6255 71.0391 14.6255 70.4693 14.8155C69.8995 15.0054 69.3296 15.1954 68.9497 15.5753L67.2402 12.1563C68 11.7764 68.7598 11.3965 69.8995 11.0166C70.8492 10.8267 71.9888 10.6367 72.9386 10.6367C75.028 10.6367 76.7374 11.2066 77.8771 12.1563C79.0168 13.106 79.5866 14.6255 79.5866 16.7149V23.363H75.0279V23.5529Z" fill="#231F20"/>
<path d="M86.9945 23.7429C85.8548 23.7429 84.9051 23.5529 83.7654 23.363C82.8157 23.173 81.866 22.7931 81.2961 22.4133L82.6258 18.9943C83.1956 19.3741 83.9554 19.5641 84.7151 19.754C85.4749 19.944 86.2347 20.1339 86.9945 20.1339C87.5643 20.1339 87.9442 20.1339 88.3241 19.944C88.514 19.754 88.704 19.754 88.704 19.5641C88.704 19.3741 88.514 19.1842 88.3241 19.1842C88.1341 19.1842 87.7542 18.9943 87.3744 18.9943C86.9945 18.9943 86.4246 18.8043 86.0447 18.8043C85.6649 18.8043 85.095 18.6144 84.5252 18.4244C83.9554 18.2345 83.5755 18.0445 83.1956 17.8546C82.8157 17.6646 82.4358 17.2848 82.2459 16.7149C82.0559 16.335 81.866 15.5753 81.866 15.0054C81.866 14.2457 82.0559 13.4859 82.6258 12.916C83.1956 12.3462 83.7654 11.7764 84.7151 11.3965C85.6649 11.0166 86.8045 10.8267 88.3241 10.8267C89.2738 10.8267 90.2235 10.8267 90.9833 11.0166C91.7431 11.2065 92.3129 11.3965 93.0727 11.7764L91.5531 15.1954C90.9833 14.8155 90.2235 14.6255 89.6537 14.4356C89.0839 14.2457 88.514 14.2457 87.9442 14.2457C87.3744 14.2457 86.8045 14.2457 86.6146 14.4356C86.4246 14.6255 86.2347 14.6255 86.2347 14.8155C86.2347 15.0054 86.4246 15.1954 86.6146 15.1954C86.8045 15.1954 87.1844 15.3853 87.5643 15.3853C87.9442 15.3853 88.514 15.5753 88.8939 15.5753C89.4637 15.5753 89.8436 15.7652 90.4135 15.9552C90.9833 16.1451 91.3632 16.335 91.7431 16.525C92.123 16.7149 92.5028 17.0948 92.6928 17.6646C92.8827 18.2345 93.0727 18.8043 93.0727 19.3741C93.0727 20.1339 92.8827 20.8937 92.3129 21.4635C91.7431 22.0334 91.1732 22.6032 90.2235 22.9831C89.2738 23.363 88.514 23.7429 86.9945 23.7429Z" fill="#231F20"/>
<path d="M101.81 23.7429C100.29 23.7429 98.9609 23.5529 97.8212 22.9831C96.6816 22.4133 95.7318 21.6535 95.162 20.7038C94.5922 19.754 94.2123 18.6144 94.2123 17.4747C94.2123 16.1451 94.5922 15.0054 95.162 14.0557C95.7318 13.106 96.6816 12.3462 97.6313 11.7764C98.581 11.2065 99.9106 11.0166 101.24 11.0166C102.38 11.0166 103.52 11.2065 104.659 11.7764C105.609 12.3462 106.559 12.916 107.128 13.8658C107.888 14.6255 108.268 15.7652 108.268 17.2848C108.268 17.4747 108.268 17.6646 108.268 17.8546C108.268 18.0445 108.268 18.2345 108.268 18.4244H98.581V15.9551H105.419L103.52 16.525C103.52 15.9551 103.52 15.5753 103.33 15.1954C103.14 14.8155 102.95 14.6255 102.57 14.4356C102.19 14.2457 101.81 14.0557 101.43 14.0557C101.05 14.0557 100.67 14.0557 100.29 14.4356C99.9106 14.6255 99.7207 14.8155 99.5307 15.1954C99.3408 15.5753 99.3408 15.9551 99.3408 16.525V17.2848C99.3408 17.8546 99.5307 18.2345 99.7207 18.6144C99.9106 18.9943 100.29 19.1842 100.67 19.3741C101.05 19.5641 101.62 19.754 102.19 19.754C102.76 19.754 103.33 19.754 103.709 19.5641C104.089 19.3741 104.469 19.1842 104.849 18.8043L107.508 21.4635C106.939 22.0334 106.179 22.6032 105.229 22.9831C104.279 23.5529 103.14 23.7429 101.81 23.7429Z" fill="#231F20"/>
<path d="M109.978 23.553V7.59766H115.296V23.553H109.978Z" fill="#231F20"/>
<path d="M117.955 23.553V7.59766H125.743C127.453 7.59766 129.162 7.97754 130.492 8.54738C131.821 9.11721 132.961 10.0669 133.721 11.2066C134.48 12.3463 134.86 13.8658 134.86 15.3854C134.86 17.0949 134.48 18.4245 133.721 19.5641C132.961 20.7038 131.821 21.6535 130.492 22.4133C129.162 23.1731 127.642 23.363 125.743 23.363H117.955V23.553ZM123.464 19.1842H125.743C126.503 19.1842 127.263 18.9943 127.642 18.8044C128.212 18.4245 128.592 18.0446 128.972 17.4748C129.352 16.9049 129.542 16.1451 129.542 15.3854C129.542 14.6256 129.352 13.8658 128.972 13.296C128.592 12.7261 128.212 12.3463 127.642 11.9664C127.073 11.5865 126.503 11.5865 125.743 11.5865H123.464V19.1842Z" fill="#231F20"/>
<path d="M27.352 0H6.64805C3.03911 0 0 3.03911 0 6.64804V27.352C0 30.9609 3.03911 34 6.64805 34H20.8939C22.0335 34 22.7933 33.0503 22.7933 32.1006V30.3911C22.7933 25.2626 26.9721 21.2737 31.9106 21.2737C33.0503 21.2737 33.8101 20.324 33.8101 19.3743V6.64804C34 3.03911 31.1508 0 27.352 0Z" fill="#0054F9"/>
<path d="M34.5698 28.8716C34.5698 29.8213 34.1899 30.7711 33.6201 31.3409C33.0502 31.9107 32.1005 32.2906 31.1508 32.2906C30.2011 32.2906 29.2514 31.9107 28.6815 31.3409C28.4916 31.151 28.3016 30.7711 28.1117 30.5811C27.9218 30.0113 27.7318 29.6314 27.7318 29.0616C27.7318 28.1119 28.1117 27.1621 28.6815 26.5923C29.2514 26.0225 30.2011 25.6426 31.1508 25.6426C31.3407 25.6426 31.7206 25.6426 31.9106 25.8325C33.4301 26.0225 34.5698 27.3521 34.5698 28.8716Z" fill="#0054F9"/>
</svg>
