<svg width="183" height="34" viewBox="0 0 183 34" fill="none" xmlns="http://www.w3.org/2000/svg">
<path d="M53.5093 25.4005L48.4392 9.4707H53.924L58.0328 22.9192H55.2622L59.6161 9.4707H64.5165L68.5689 22.9192H65.9678L70.1898 9.4707H75.2599L70.1898 25.3816H64.5354L61.2181 14.3955H62.7637L59.2768 25.3816L53.5093 25.4005Z" fill="#0C0C0D"/>
<path d="M74.1481 25.4005L81.0464 9.4707H86.3239L93.2411 25.3816H87.7186L82.6108 12.1225H84.6841L79.5763 25.4763L74.1481 25.4005ZM78.2758 22.7298L79.6328 18.9415H86.9082L88.2652 22.7298H78.2758Z" fill="#0C0C0D"/>
<path d="M94.108 25.4005V9.4707H99.442V21.2334H106.585V25.3816L94.108 25.4005Z" fill="#0C0C0D"/>
<path d="M108.055 25.4005V9.4707H113.389V21.2334H120.627V25.3816L108.055 25.4005Z" fill="#0C0C0D"/>
<path d="M127.262 21.366H135.178V25.4005H121.984V9.4707H134.857V13.5431H127.318L127.262 21.366ZM126.903 15.3994H133.953V19.1877H126.903V15.3994Z" fill="#0C0C0D"/>
<path d="M140.662 25.4005V13.6568H136.026V9.4707H150.633V13.6378H145.996V25.3816L140.662 25.4005Z" fill="#0C0C0D"/>
<path d="M153.385 25.6281C152.994 25.6416 152.604 25.5765 152.238 25.4366C151.872 25.2968 151.538 25.0849 151.255 24.8136C150.979 24.5423 150.76 24.2181 150.611 23.8602C150.462 23.5023 150.386 23.118 150.388 22.73C150.374 22.3377 150.445 21.947 150.594 21.5843C150.744 21.2216 150.969 20.8953 151.255 20.6275C151.834 20.0934 152.599 19.8079 153.385 19.832C154.17 19.81 154.934 20.0951 155.514 20.6275C155.81 20.8901 156.046 21.2141 156.206 21.577C156.365 21.94 156.444 22.3333 156.438 22.73C156.451 23.1262 156.382 23.5209 156.236 23.8892C156.09 24.2575 155.87 24.5915 155.59 24.8704C155.292 25.1392 154.943 25.3448 154.564 25.475C154.185 25.6052 153.784 25.6573 153.385 25.6281Z" fill="#0C0C0D"/>
<path d="M158.116 25.4005V9.4707H163.45V25.3816L158.116 25.4005Z" fill="#0C0C0D"/>
<path d="M166.032 25.4003V9.47047H173.835C175.439 9.43779 177.03 9.76794 178.49 10.4365C179.781 11.0632 180.872 12.0409 181.638 13.2588C182.417 14.5073 182.829 15.952 182.825 17.4259C182.862 18.9235 182.477 20.4011 181.713 21.6877C180.922 22.8933 179.803 23.8462 178.49 24.4343C177.03 25.1028 175.439 25.433 173.835 25.4003H166.032ZM171.366 21.2331H173.609C174.261 21.2292 174.905 21.0805 175.494 20.7975C176.053 20.5126 176.513 20.0634 176.813 19.5095C177.147 18.8676 177.309 18.1497 177.284 17.4259C177.307 16.7144 177.144 16.0093 176.813 15.3802C176.508 14.8355 176.048 14.3938 175.494 14.1111C174.905 13.8282 174.261 13.6794 173.609 13.6755H171.366V21.2331Z" fill="#0C0C0D"/>
<path d="M27.1981 0H6.63492C4.87687 0.00499796 3.19225 0.70906 1.94912 1.95836C0.705987 3.20766 0.00540077 4.90064 0.000427486 6.66741V27.3326C-0.00953084 28.2154 0.154586 29.0915 0.483307 29.9102C0.812027 30.729 1.29884 31.4742 1.91566 32.1029C2.53247 32.7316 3.26707 33.2313 4.07706 33.5731C4.88705 33.915 5.75639 34.0923 6.63492 34.0947H20.8463C21.3462 34.0947 21.8256 33.8951 22.179 33.5399C22.5325 33.1847 22.7311 32.7029 22.7311 32.2006V30.3064C22.7311 27.88 23.6902 25.553 25.3975 23.8373C27.1047 22.1215 29.4202 21.1577 31.8347 21.1577C32.3345 21.1577 32.8139 20.9581 33.1674 20.6029C33.5209 20.2477 33.7195 19.7659 33.7195 19.2635V6.66741C33.7149 4.92009 33.0299 3.244 31.811 1.99789C30.5922 0.75177 28.9364 0.0346433 27.1981 0Z" fill="#0054F9"/>
<path d="M34.3787 28.8288C34.3788 29.507 34.1788 30.1699 33.8039 30.7338C33.4291 31.2977 32.8962 31.7372 32.2728 31.9967C31.6494 32.2563 30.9633 32.3242 30.3015 32.1918C29.6397 32.0595 29.0318 31.7329 28.5547 31.2533C28.3069 31.0201 28.1026 30.7443 27.9515 30.4388C27.6844 29.9451 27.5481 29.3907 27.5557 28.8288C27.5655 27.9226 27.9281 27.0563 28.5658 26.4154C29.2034 25.7746 30.0655 25.4102 30.9672 25.4004C31.2337 25.4038 31.499 25.4355 31.7588 25.4951C32.5032 25.677 33.1656 26.1041 33.6404 26.7082C34.1152 27.3124 34.3751 28.0589 34.3787 28.8288Z" fill="#0054F9"/>
</svg>
