<svg width="70" height="16" viewBox="0 0 70 16" fill="none" xmlns="http://www.w3.org/2000/svg">
<g clip-path="url(#clip0_116_13747)">
<path d="M29.7944 7.04177H29.7059C29.9982 6.90236 30.2531 6.69453 30.4494 6.43565C30.6608 6.14331 30.7726 5.78998 30.7681 5.4284C30.7695 5.15102 30.7033 4.87752 30.5752 4.63195C30.4471 4.38638 30.261 4.17626 30.0334 4.02005C29.3511 3.60096 28.5555 3.4077 27.7585 3.4674H23.7842V10.9549H27.971C28.7888 11.0082 29.6043 10.8192 30.3166 10.4111C30.5652 10.2463 30.7685 10.0211 30.9078 9.75625C31.047 9.49139 31.1177 9.19546 31.1133 8.89581C31.1242 8.49337 31.0029 8.09855 30.7681 7.77269C30.5182 7.4417 30.1808 7.18836 29.7944 7.04177ZM27.4399 5.21448C27.6557 5.201 27.8709 5.25052 28.0595 5.35709C28.1255 5.40364 28.1783 5.46683 28.2125 5.54035C28.2466 5.61388 28.261 5.69515 28.2542 5.77604C28.2586 5.85536 28.2431 5.93451 28.209 6.00618C28.175 6.07785 28.1236 6.13972 28.0595 6.18606C27.8725 6.29672 27.6561 6.34652 27.4399 6.32868H26.2538V5.21448H27.4399ZM28.3959 9.02952C28.2084 9.1391 27.9924 9.18883 27.7762 9.17214H26.2715V8.02227H27.7762C27.9933 8.00769 28.2096 8.06059 28.3959 8.17381C28.4653 8.22233 28.5213 8.28793 28.5585 8.36438C28.5957 8.44082 28.6128 8.52557 28.6083 8.61058C28.6063 8.69392 28.5844 8.77554 28.5443 8.84849C28.5042 8.92144 28.4472 8.98355 28.3782 9.02952H28.3959Z" fill="#0C0C0C"/>
<path d="M34.4415 3.44946L31.193 10.9369H33.7422L34.2379 9.63554H37.0616L37.5661 10.9369H40.1508L36.9023 3.44946H34.4415ZM34.9284 7.81715L35.6542 5.92746L36.3712 7.81715H34.9284Z" fill="#0C0C0C"/>
<path d="M46.0283 6.96147C45.7504 6.79224 45.4532 6.65755 45.1431 6.56036C44.8527 6.4661 44.5572 6.38872 44.258 6.3286L43.4525 6.16816C43.2464 6.13669 43.0464 6.07356 42.8594 5.98097C42.7962 5.95919 42.7412 5.91849 42.7017 5.86432C42.6621 5.81016 42.6399 5.74511 42.6381 5.67791C42.6361 5.58925 42.6677 5.50315 42.7266 5.43724C42.8096 5.35401 42.9137 5.29542 43.0276 5.26788C43.2154 5.2196 43.4092 5.19859 43.6029 5.20548C43.959 5.20173 44.3138 5.24976 44.6563 5.3481C45.0241 5.44933 45.3802 5.58977 45.7185 5.76704L46.4709 3.93083C46.0544 3.70297 45.6071 3.5378 45.1431 3.44058C44.6575 3.33388 44.1619 3.28009 43.6649 3.28013C43.0085 3.26094 42.355 3.37618 41.7441 3.61885C41.2825 3.80114 40.8809 4.10991 40.5846 4.51022C40.3293 4.8821 40.1933 5.32386 40.1951 5.77596C40.1843 6.12606 40.2636 6.47303 40.4252 6.7832C40.5666 7.04079 40.7669 7.26078 41.0094 7.42498C41.2586 7.5927 41.5297 7.7247 41.8149 7.81718C42.1026 7.92265 42.3988 8.00317 42.7001 8.05785L43.5056 8.23612C43.7111 8.27428 43.9106 8.34024 44.0986 8.43222C44.1613 8.46001 44.2151 8.50467 44.2541 8.56129C44.2932 8.61792 44.316 8.68429 44.3199 8.75311C44.3178 8.83739 44.2828 8.91744 44.2226 8.97595C44.1346 9.0446 44.0313 9.0905 43.9216 9.10966C43.7322 9.14671 43.5391 9.16166 43.3463 9.15423C42.9185 9.15006 42.493 9.09014 42.0805 8.97595C41.6665 8.85854 41.2682 8.69093 40.8944 8.47679L40.0889 10.313C40.5368 10.5682 41.0201 10.7545 41.5228 10.8656C42.1015 11.0135 42.6961 11.0884 43.2931 11.0885C43.9516 11.1122 44.6072 10.9905 45.2139 10.7319C45.6739 10.5468 46.0749 10.2386 46.3735 9.84058C46.626 9.47117 46.7589 9.03219 46.7541 8.58375C46.767 8.24303 46.6907 7.90487 46.5328 7.60325C46.4142 7.35414 46.2418 7.13487 46.0283 6.96147Z" fill="#0C0C0C"/>
<path d="M50.0026 8.04891H53.1449V6.23052H50.0026V5.35698H53.5786V3.44946H47.533V10.9369H53.7202V9.03832H50.0026V8.04891Z" fill="#0C0C0C"/>
<path d="M55.765 8.28962C55.396 8.27926 55.0374 8.41347 54.7647 8.66399C54.6322 8.79083 54.5281 8.94471 54.4594 9.11535C54.3907 9.28599 54.359 9.46943 54.3664 9.65341C54.3599 9.84844 54.3952 10.0426 54.4701 10.2226C54.5449 10.4026 54.6575 10.5642 54.8001 10.6963C55.0757 10.9432 55.4316 11.0795 55.8004 11.0795C56.1692 11.0795 56.5251 10.9432 56.8006 10.6963C56.9323 10.5651 57.0356 10.4079 57.1042 10.2346C57.1727 10.0612 57.205 9.87552 57.1989 9.68906C57.2063 9.50509 57.1746 9.32164 57.106 9.151C57.0373 8.98037 56.9331 8.82648 56.8006 8.69965C56.6641 8.56485 56.5021 8.45908 56.3242 8.38863C56.1463 8.31819 55.9561 8.28452 55.765 8.28962Z" fill="#0C0C0C"/>
<path d="M60.5271 3.44946H58.0221V10.9369H60.5271V3.44946Z" fill="#0C0C0C"/>
<path d="M69.0423 5.1966C68.68 4.63444 68.1677 4.18648 67.5641 3.90412C66.8783 3.58951 66.1311 3.43415 65.3777 3.44953H61.7397V10.937H65.4043C66.1577 10.9524 66.9049 10.797 67.5906 10.4824C68.1861 10.1983 68.6894 9.75018 69.0423 9.18992C69.4076 8.58693 69.5921 7.89045 69.5734 7.18435C69.5943 6.48359 69.4095 5.79219 69.0423 5.1966ZM66.8471 8.16485C66.7038 8.42353 66.4884 8.63425 66.2275 8.77097C65.9506 8.90191 65.6482 8.96891 65.3423 8.96707H64.2447V5.40161H65.2981C65.6046 5.40257 65.9071 5.47262 66.1832 5.60663C66.4454 5.73738 66.6617 5.94578 66.8029 6.20384C66.9585 6.49989 67.0348 6.8317 67.0241 7.16652C67.0527 7.50915 66.9916 7.85333 66.8471 8.16485Z" fill="#0C0C0C"/>
<path d="M12.773 0H3.11596C2.29033 0.00235198 1.49918 0.333675 0.915365 0.921581C0.331553 1.50949 0.00253637 2.30618 0.000200761 3.1376V12.8624C-0.00447597 13.2778 0.0725983 13.6901 0.226976 14.0754C0.381353 14.4607 0.609976 14.8114 0.899651 15.1072C1.18933 15.4031 1.53432 15.6382 1.91471 15.7991C2.29511 15.96 2.70338 16.0434 3.11596 16.0446H9.79005C10.0248 16.0446 10.25 15.9507 10.416 15.7835C10.582 15.6163 10.6752 15.3896 10.6752 15.1532V14.2618C10.6752 13.12 11.1256 12.0249 11.9274 11.2175C12.7292 10.4101 13.8166 9.95654 14.9505 9.95654C15.1853 9.95654 15.4104 9.86263 15.5764 9.69547C15.7424 9.52831 15.8357 9.30158 15.8357 9.06518V3.1376C15.8335 2.31534 15.5118 1.52659 14.9394 0.940182C14.367 0.353774 13.5894 0.0163027 12.773 0Z" fill="#0054F9"/>
<path d="M16.1453 13.5665C16.1454 13.8856 16.0514 14.1976 15.8754 14.463C15.6994 14.7283 15.4491 14.9352 15.1563 15.0573C14.8636 15.1794 14.5414 15.2114 14.2306 15.1491C13.9198 15.0868 13.6343 14.9331 13.4102 14.7074C13.2938 14.5977 13.1979 14.4679 13.1269 14.3242C13.0015 14.0918 12.9375 13.8309 12.9411 13.5665C12.9457 13.14 13.1159 12.7324 13.4154 12.4308C13.7149 12.1292 14.1197 11.9578 14.5432 11.9531C14.6683 11.9547 14.793 11.9696 14.915 11.9977C15.2646 12.0833 15.5756 12.2843 15.7986 12.5686C16.0216 12.8529 16.1437 13.2042 16.1453 13.5665Z" fill="#0054F9"/>
</g>
<defs>
<clipPath id="clip0_116_13747">
<rect width="69.6" height="16" fill="white"/>
</clipPath>
</defs>
</svg>
