<svg width="185" height="34" viewBox="0 0 185 34" fill="none" xmlns="http://www.w3.org/2000/svg">
<g clip-path="url(#clip0_408_453)">
<path d="M53.7749 25.4005L48.6797 9.4707H54.1917L58.3209 22.9192H55.5365L59.912 9.4707H64.8368L68.9092 22.9192H66.2953L70.5382 9.4707H75.6334L70.5382 25.3816H64.8557L61.522 14.3955H63.0752L59.5711 25.3816L53.7749 25.4005Z" fill="#0C0C0D"/>
<path d="M74.5159 25.4005L81.4485 9.4707H86.7521L93.7036 25.3816H88.1538L83.0206 12.1225H85.1042L79.971 25.4763L74.5159 25.4005ZM78.6641 22.7298L80.0278 18.9415H87.3393L88.7031 22.7298H78.6641Z" fill="#0C0C0D"/>
<path d="M94.575 25.4005V9.4707H99.9354V21.2334H107.114V25.3816L94.575 25.4005Z" fill="#0C0C0D"/>
<path d="M108.592 25.4005V9.4707H113.952V21.2334H121.226V25.3816L108.592 25.4005Z" fill="#0C0C0D"/>
<path d="M127.893 21.366H135.848V25.4005H122.589V9.4707H135.526V13.5431H127.95L127.893 21.366ZM127.533 15.3994H134.617V19.1877H127.533V15.3994Z" fill="#0C0C0D"/>
<path d="M141.36 25.4005V13.6568H136.701V9.4707H151.38V13.6378H146.721V25.3816L141.36 25.4005Z" fill="#0C0C0D"/>
<path d="M159.601 25.4005V9.4707H164.962V25.3816L159.601 25.4005Z" fill="#0C0C0D"/>
<path d="M167.557 25.4005V9.47072H175.398C177.011 9.43804 178.609 9.76818 180.077 10.4367C181.409 11.04 182.53 12.0279 183.296 13.2734C184.063 14.5189 184.439 15.9651 184.377 17.4261C184.417 18.9266 184.022 20.4066 183.24 21.688C182.47 22.8867 181.372 23.8398 180.077 24.4345C178.609 25.1031 177.011 25.4332 175.398 25.4005H167.557ZM172.917 21.2334H175.171C175.827 21.2314 176.474 21.0825 177.065 20.7977C177.628 20.5129 178.09 20.0637 178.391 19.5097C178.726 18.8678 178.89 18.1499 178.865 17.4261C178.887 16.7147 178.724 16.0096 178.391 15.3805C178.084 14.8357 177.623 14.3941 177.065 14.1114C176.474 13.8266 175.827 13.6777 175.171 13.6757H172.917V21.2334Z" fill="#0C0C0D"/>
<path d="M27.333 0H6.66784C4.90107 0.00499796 3.20809 0.70906 1.95879 1.95836C0.70949 3.20766 0.00542757 4.90064 0.000429607 6.66741V27.3326C-0.00957813 28.2154 0.155353 29.0915 0.485705 29.9102C0.816057 30.729 1.30529 31.4742 1.92516 32.1029C2.54504 32.7316 3.28328 33.2313 4.09729 33.5731C4.9113 33.915 5.78496 34.0923 6.66784 34.0947H20.9497C21.4521 34.0947 21.9339 33.8951 22.2891 33.5399C22.6443 33.1847 22.8439 32.7029 22.8439 32.2006V30.3064C22.8439 27.88 23.8078 25.553 25.5235 23.8373C27.2392 22.1215 29.5662 21.1577 31.9926 21.1577C32.495 21.1577 32.9768 20.9581 33.332 20.6029C33.6872 20.2477 33.8868 19.7659 33.8868 19.2635V6.66741C33.8822 4.92009 33.1938 3.244 31.9689 1.99789C30.744 0.75177 29.08 0.0346433 27.333 0Z" fill="#0054F9"/>
<path d="M34.5493 28.829C34.5494 29.5072 34.3484 30.1701 33.9716 30.734C33.5949 31.2979 33.0594 31.7374 32.4329 31.997C31.8064 32.2565 31.117 32.3244 30.4519 32.1921C29.7867 32.0597 29.1758 31.7331 28.6963 31.2536C28.4473 31.0204 28.2421 30.7445 28.0902 30.4391C27.8218 29.9454 27.6848 29.391 27.6924 28.829C27.7023 27.9228 28.0667 27.0565 28.7075 26.4157C29.3483 25.7749 30.2146 25.4105 31.1209 25.4006C31.3886 25.404 31.6553 25.4357 31.9164 25.4953C32.6645 25.6772 33.3302 26.1043 33.8073 26.7085C34.2845 27.3127 34.5457 28.0592 34.5493 28.829Z" fill="#0054F9"/>
</g>
<defs>
<clipPath id="clip0_408_453">
<rect width="184.377" height="34" fill="white"/>
</clipPath>
</defs>
</svg>
