<svg width="149" height="34" viewBox="0 0 149 34" fill="none" xmlns="http://www.w3.org/2000/svg">
<g clip-path="url(#clip0_121_21534)">
<path d="M63.784 14.9638H63.5945C64.2203 14.6675 64.766 14.2259 65.1862 13.6758C65.6387 13.0546 65.878 12.3037 65.8684 11.5354C65.8715 10.9459 65.7297 10.3648 65.4554 9.84293C65.1812 9.32109 64.7829 8.87458 64.2956 8.54263C62.8349 7.65208 61.1318 7.24138 59.4256 7.36826H50.9172V23.2791H59.8804C61.6312 23.3925 63.3769 22.9908 64.902 22.1237C65.4341 21.7735 65.8693 21.2949 66.1674 20.7321C66.4655 20.1692 66.6168 19.5404 66.6074 18.9036C66.6308 18.0484 66.371 17.2094 65.8684 16.517C65.3335 15.8136 64.6111 15.2753 63.784 14.9638ZM58.7434 11.0808C59.2055 11.0522 59.6661 11.1574 60.0698 11.3839C60.2112 11.4828 60.3242 11.617 60.3973 11.7733C60.4705 11.9295 60.5013 12.1022 60.4867 12.2741C60.4961 12.4427 60.4629 12.6109 60.39 12.7632C60.3171 12.9155 60.207 13.0469 60.0698 13.1454C59.6695 13.3806 59.2062 13.4864 58.7434 13.4485H56.2041V11.0808H58.7434ZM60.7899 19.1878C60.3886 19.4206 59.9261 19.5263 59.4635 19.4908H56.242V17.0474H59.4635C59.9282 17.0164 60.3912 17.1288 60.7899 17.3694C60.9386 17.4725 61.0585 17.6119 61.1381 17.7743C61.2177 17.9368 61.2544 18.1169 61.2447 18.2975C61.2405 18.4746 61.1935 18.6481 61.1077 18.8031C61.0219 18.9581 60.8999 19.0901 60.752 19.1878H60.7899Z" fill="#FCFDFF"/>
<path d="M73.7325 7.33032L66.7781 23.2412H72.2355L73.2967 20.4757H79.3416L80.4217 23.2412H85.955L79.0005 7.33032H73.7325ZM74.7748 16.6117L76.3286 12.5961L77.8635 16.6117H74.7748Z" fill="#FCFDFF"/>
<path d="M98.5374 14.7933C97.9425 14.4337 97.3062 14.1475 96.6424 13.9409C96.0207 13.7406 95.388 13.5762 94.7475 13.4484L93.0231 13.1075C92.582 13.0406 92.1538 12.9065 91.7535 12.7097C91.6182 12.6634 91.5004 12.5769 91.4157 12.4618C91.3311 12.3467 91.2836 12.2085 91.2797 12.0657C91.2753 11.8773 91.3431 11.6944 91.4692 11.5543C91.6468 11.3774 91.8697 11.2529 92.1135 11.1944C92.5157 11.0918 92.9304 11.0471 93.3452 11.0618C94.1076 11.0538 94.8671 11.1559 95.6002 11.3649C96.3877 11.58 97.15 11.8784 97.8742 12.2551L99.4849 8.35317C98.5934 7.86897 97.6357 7.51798 96.6424 7.31138C95.6029 7.08464 94.5419 6.97034 93.4779 6.97044C92.0726 6.92965 90.6736 7.17452 89.3658 7.69021C88.3777 8.07757 87.5178 8.73372 86.8834 9.58436C86.3369 10.3746 86.0459 11.3134 86.0497 12.2741C86.0266 13.018 86.1963 13.7553 86.5423 14.4144C86.845 14.9618 87.2737 15.4293 87.793 15.7782C88.3264 16.1346 88.9067 16.4151 89.5174 16.6117C90.1333 16.8358 90.7673 17.0069 91.4124 17.1231L93.1368 17.5019C93.5768 17.583 94.0039 17.7232 94.4064 17.9186C94.5405 17.9777 94.6557 18.0726 94.7393 18.1929C94.8229 18.3132 94.8716 18.4543 94.8801 18.6005C94.8756 18.7796 94.8007 18.9497 94.6717 19.0741C94.4833 19.2199 94.2621 19.3175 94.0274 19.3582C93.6218 19.4369 93.2085 19.4687 92.7957 19.4529C91.8799 19.444 90.969 19.3167 90.0859 19.0741C89.1996 18.8246 88.347 18.4684 87.5467 18.0133L85.8223 21.9153C86.7812 22.4576 87.816 22.8534 88.8921 23.0897C90.1309 23.4038 91.4039 23.5629 92.682 23.5632C94.0916 23.6136 95.4951 23.355 96.794 22.8055C97.7787 22.4121 98.6371 21.7571 99.2764 20.9114C99.817 20.1264 100.102 19.1936 100.091 18.2406C100.119 17.5166 99.9556 16.798 99.6175 16.1571C99.3636 15.6277 98.9946 15.1618 98.5374 14.7933Z" fill="#FCFDFF"/>
<path d="M107.046 17.1041H113.773V13.2401H107.046V11.3838H114.701V7.33032H101.759V23.2412H115.004V19.2066H107.046V17.1041Z" fill="#FCFDFF"/>
<path d="M119.382 17.6157C118.592 17.5937 117.824 17.8789 117.241 18.4112C116.957 18.6807 116.734 19.0078 116.587 19.3704C116.44 19.733 116.372 20.1228 116.388 20.5137C116.374 20.9282 116.45 21.3408 116.61 21.7233C116.77 22.1058 117.011 22.4491 117.317 22.7299C117.906 23.2544 118.668 23.5442 119.458 23.5442C120.247 23.5442 121.009 23.2544 121.599 22.7299C121.881 22.451 122.102 22.117 122.249 21.7487C122.396 21.3804 122.465 20.9857 122.452 20.5895C122.468 20.1986 122.4 19.8087 122.253 19.4461C122.106 19.0835 121.883 18.7565 121.599 18.487C121.307 18.2005 120.96 17.9758 120.579 17.8261C120.198 17.6764 119.791 17.6048 119.382 17.6157Z" fill="#FCFDFF"/>
<path d="M129.577 7.33032H124.214V23.2412H129.577V7.33032Z" fill="#FCFDFF"/>
<path d="M147.806 11.0429C147.031 9.84827 145.934 8.89637 144.642 8.29635C143.174 7.6278 141.574 7.29766 139.961 7.33033H132.173V23.2412H140.018C141.631 23.2739 143.23 22.9437 144.698 22.2752C145.973 21.6715 147.051 20.7192 147.806 19.5287C148.588 18.2473 148.983 16.7673 148.943 15.2668C148.988 13.7777 148.592 12.3085 147.806 11.0429ZM143.107 17.3504C142.8 17.9001 142.339 18.3479 141.78 18.6384C141.188 18.9166 140.54 19.059 139.885 19.0551H137.536V11.4785H139.791C140.447 11.4805 141.094 11.6294 141.685 11.9142C142.247 12.192 142.71 12.6349 143.012 13.1833C143.345 13.8123 143.509 14.5175 143.486 15.2289C143.547 15.957 143.416 16.6884 143.107 17.3504Z" fill="#FCFDFF"/>
<path d="M27.3446 0H6.67066C4.90314 0.00499796 3.20945 0.70906 1.95962 1.95836C0.70979 3.20766 0.00542987 4.90064 0.000429789 6.66741V27.3326C-0.00958218 28.2154 0.155419 29.0915 0.48591 29.9102C0.816402 30.729 1.30584 31.4742 1.92598 32.1029C2.54611 32.7316 3.28467 33.2313 4.09903 33.5731C4.91338 33.915 5.7874 34.0923 6.67066 34.0947H20.9586C21.4612 34.0947 21.9431 33.8951 22.2985 33.5399C22.6539 33.1847 22.8535 32.7029 22.8535 32.2006V30.3064C22.8535 27.88 23.8178 25.553 25.5343 23.8373C27.2507 22.1215 29.5787 21.1577 32.0062 21.1577C32.5087 21.1577 32.9907 20.9581 33.3461 20.6029C33.7015 20.2477 33.9011 19.7659 33.9011 19.2635V6.66741C33.8965 4.92009 33.2078 3.244 31.9824 1.99789C30.757 0.75177 29.0923 0.0346433 27.3446 0Z" fill="#0054F9"/>
<path d="M34.5639 28.829C34.564 29.5072 34.3629 30.1701 33.986 30.734C33.6091 31.2979 33.0734 31.7374 32.4466 31.997C31.8199 32.2565 31.1301 32.3244 30.4647 32.1921C29.7994 32.0597 29.1882 31.7331 28.7085 31.2536C28.4594 31.0204 28.254 30.7445 28.1021 30.4391C27.8335 29.9454 27.6965 29.391 27.7042 28.829C27.714 27.9228 28.0785 27.0565 28.7196 26.4157C29.3607 25.7749 30.2274 25.4105 31.134 25.4006C31.4019 25.404 31.6687 25.4357 31.9299 25.4953C32.6783 25.6772 33.3443 26.1043 33.8216 26.7085C34.299 27.3127 34.5603 28.0592 34.5639 28.829Z" fill="#0054F9"/>
</g>
<defs>
<clipPath id="clip0_121_21534">
<rect width="149" height="34" fill="white"/>
</clipPath>
</defs>
</svg>
